<?xml version="1.0" encoding="UTF-8"?>
<svg version="1.1" xmlns="http://www.w3.org/2000/svg" width="248" height="248">
<path d="M0 0 C1.62327461 -0.01279495 1.62327461 -0.01279495 3.27934265 -0.02584839 C4.45661423 -0.02494202 5.6338858 -0.02403564 6.84683228 -0.02310181 C8.09452896 -0.02981903 9.34222565 -0.03653625 10.62773132 -0.04345703 C14.04316016 -0.05918685 17.45834581 -0.06581127 20.87379408 -0.0670886 C23.00980256 -0.06851221 25.1457857 -0.07278576 27.28178787 -0.07808304 C34.73984643 -0.09657434 42.19783359 -0.10475475 49.65591431 -0.10317993 C56.59799224 -0.10197864 63.53975922 -0.12308057 70.48175848 -0.15466726 C76.45051161 -0.18085372 82.41916332 -0.19154625 88.38797343 -0.19026911 C91.9490717 -0.18976019 95.50989347 -0.19540452 99.0709343 -0.21662521 C103.04453333 -0.23965903 107.01770867 -0.23047211 110.99136353 -0.21841431 C112.16458664 -0.22965332 113.33780975 -0.24089233 114.54658508 -0.25247192 C122.76071691 -0.18912689 127.01373231 1.14368403 133.23599243 6.64242554 C138.36647974 12.46622195 140.65511452 16.74718558 140.70239258 24.42663574 C140.71099304 25.46945206 140.71959351 26.51226837 140.72845459 27.58668518 C140.73484451 29.29481133 140.73484451 29.29481133 140.74136353 31.03744507 C140.75362976 32.84302132 140.75362976 32.84302132 140.7661438 34.68507385 C140.79098011 38.67345857 140.80766768 42.66180542 140.82192993 46.65023804 C140.82729276 48.02692546 140.83267027 49.40361283 140.83806229 50.78030014 C140.85968402 56.51077682 140.87841722 62.24125077 140.88968468 67.97175789 C140.90590195 76.163868 140.939033 84.35550224 140.99608552 92.54743302 C141.03489558 98.31832275 141.05433053 104.0890858 141.05960524 109.86010253 C141.06324444 113.3012504 141.0751104 116.74188999 141.10770798 120.18289566 C141.13939328 124.02930879 141.13938999 127.87452896 141.13198853 131.72103882 C141.14839386 132.8476442 141.16479919 133.97424957 141.18170166 135.13499451 C141.11495253 143.63851865 138.99863918 150.11927222 133.52114868 156.70492554 C132.89079712 157.22055054 132.26044556 157.73617554 131.61099243 158.26742554 C130.66933228 159.07180054 130.66933228 159.07180054 129.70864868 159.89242554 C125.14536235 162.79708519 120.69409656 163.51698505 115.35952759 163.49447632 C114.15873566 163.49432526 112.95794373 163.49417419 111.72076416 163.49401855 C109.79857559 163.4785347 109.79857559 163.4785347 107.83755493 163.46273804 C106.50091769 163.45900343 105.16427769 163.45615857 103.82763672 163.4541626 C100.32594111 163.44656131 96.82441393 163.42694342 93.32278442 163.40475464 C89.74309568 163.38422027 86.16337947 163.37514472 82.58364868 163.36508179 C75.57186116 163.34369383 68.56018491 163.3096007 61.54849243 163.26742554 C61.57205811 164.71979614 61.57205811 164.71979614 61.59609985 166.20150757 C61.65063228 169.81323848 61.68492662 173.42493339 61.71328735 177.03695679 C61.72832113 178.59658947 61.74875378 180.15618026 61.77481079 181.71566772 C61.81143454 183.96479669 61.82827264 186.21336401 61.84146118 188.46273804 C61.85694504 189.15360504 61.87242889 189.84447205 61.88838196 190.55627441 C61.89046348 196.62126928 60.1477917 200.45769216 56.17349243 204.95492554 C51.27148966 209.27335655 47.88541638 210.65296868 41.31240845 210.94662476 C40.61345994 210.97971174 39.91451143 211.01279873 39.19438267 211.04688835 C31.24144315 211.38959549 23.28468648 211.41236923 15.32583618 211.40023804 C13.72554001 211.40091468 12.12524394 211.40188768 10.52494812 211.40313721 C7.1996969 211.40459683 3.87447287 211.402516 0.54922485 211.39779663 C-3.66831403 211.39209574 -7.88578928 211.39539182 -12.10332584 211.40136909 C-15.39885418 211.40501807 -18.69436795 211.4038165 -21.98989677 211.4012413 C-23.5432988 211.40058421 -25.09670225 211.40135671 -26.65010262 211.40372086 C-34.32007487 211.41284004 -41.98341635 211.33791914 -49.6446228 210.94662476 C-50.81299179 210.88981537 -51.98136078 210.83300598 -53.18513489 210.7744751 C-58.37951786 209.96813428 -62.356249 207.95452523 -65.70150757 203.89242554 C-66.42080444 203.04551147 -66.42080444 203.04551147 -67.15463257 202.18148804 C-70.79292467 196.81171957 -70.7482596 191.83151531 -70.74203491 185.55526733 C-70.74875214 184.58227692 -70.75546936 183.6092865 -70.76239014 182.60681152 C-70.78137248 179.39337035 -70.78529456 176.18013803 -70.78744507 172.96664429 C-70.79387312 170.72850967 -70.80060149 168.4903759 -70.80761719 166.25224304 C-70.81959076 161.56075086 -70.82329795 156.86933231 -70.82211304 152.17782593 C-70.82190992 146.17559194 -70.84920512 140.17383177 -70.88365746 134.17171001 C-70.90593066 129.54849594 -70.90995043 124.92539579 -70.90889359 120.30213356 C-70.91124917 118.08981507 -70.92007022 115.87749342 -70.93555832 113.66522789 C-70.95522497 110.56574012 -70.94937695 107.46727267 -70.93734741 104.36776733 C-70.94858643 103.45996017 -70.95982544 102.55215302 -70.97140503 101.61683655 C-70.90376962 94.73475071 -69.13642612 89.65133749 -64.84603882 84.24398804 C-64.06293335 83.5749646 -64.06293335 83.5749646 -63.26400757 82.89242554 C-62.50023804 82.20019897 -62.50023804 82.20019897 -61.72103882 81.49398804 C-53.82194573 77.22494289 -44.5780505 78.02686793 -35.88900757 78.14242554 C-34.59414429 78.15144897 -33.29928101 78.16047241 -31.96517944 78.16976929 C-28.79375986 78.1931746 -25.62273383 78.22596326 -22.45150757 78.26742554 C-22.55978882 76.58519897 -22.55978882 76.58519897 -22.67025757 74.86898804 C-23.31495068 63.92403882 -23.63436052 52.96851165 -23.73861694 42.00588989 C-23.75533654 40.53187289 -23.77908199 39.05791619 -23.81039429 37.58413696 C-24.01676078 27.39189316 -24.20879609 15.81855485 -17.23202515 7.67758179 C-11.99971804 2.72920725 -7.3018985 0.02610277 0 0 Z " fill="#78C3F4" transform="translate(89.45150756835938,19.732574462890625)"/>
<path d="M0 0 C3.1629481 -0.00899596 6.32547612 -0.03024277 9.48828125 -0.06152344 C13.38273314 -0.10002578 17.27680876 -0.11876366 21.17144394 -0.12328148 C22.63298216 -0.12811038 24.094516 -0.13961698 25.55594254 -0.15831947 C33.62495133 -0.25559738 39.73591527 -0.2344468 46.57080078 4.29516602 C52.1201397 9.84450493 53.9016802 15.89516039 53.97738647 23.50904846 C53.96827744 24.87379555 53.96827744 24.87379555 53.95898438 26.26611328 C53.96686981 27.73085587 53.96686981 27.73085587 53.97491455 29.22518921 C53.98806656 32.43748191 53.97939398 35.64927495 53.96923828 38.86157227 C53.97126023 41.10163976 53.97417267 43.34170661 53.97793579 45.58177185 C53.98235251 50.26974778 53.97594832 54.9575519 53.96191406 59.64550781 C53.94481286 65.650067 53.95467366 71.65422416 53.97263145 77.65876865 C53.98347835 82.28190636 53.98001892 86.90494893 53.97224808 91.52808952 C53.9702491 93.74204493 53.97269471 95.95600903 53.97968674 98.1699543 C53.98731703 101.26473972 53.97567483 104.35887612 53.95898438 107.45361328 C53.96505707 108.3654689 53.97112976 109.27732452 53.97738647 110.21681213 C53.91195672 116.77536587 52.64010093 120.95358953 48.19580078 125.98266602 C43.29379801 130.30109703 39.90772473 131.68070916 33.3347168 131.97436523 C32.63576829 132.00745222 31.93681978 132.04053921 31.21669102 132.07462883 C23.2637515 132.41733597 15.30699483 132.4401097 7.34814453 132.42797852 C5.74784836 132.42865516 4.14755229 132.42962815 2.54725647 132.43087769 C-0.77799475 132.43233731 -4.10321878 132.43025648 -7.4284668 132.42553711 C-11.64600568 132.41983622 -15.86348093 132.4231323 -20.08101749 132.42910957 C-23.37654583 132.43275854 -26.6720596 132.43155698 -29.96758842 132.42898178 C-31.52099045 132.42832469 -33.0743939 132.42909718 -34.62779427 132.43146133 C-42.29776652 132.44058051 -49.961108 132.36565962 -57.62231445 131.97436523 C-58.79068344 131.91755585 -59.95905243 131.86074646 -61.16282654 131.80221558 C-66.35720951 130.99587476 -70.33394065 128.98226571 -73.67919922 124.92016602 C-74.39849609 124.07325195 -74.39849609 124.07325195 -75.13232422 123.20922852 C-78.79361184 117.80552088 -78.71061208 112.81743514 -78.67211914 106.50366211 C-78.67401749 105.52264023 -78.67591583 104.54161835 -78.6778717 103.53086853 C-78.68157165 100.29336516 -78.67088728 97.05608689 -78.65966797 93.81860352 C-78.65847574 91.56849189 -78.6580231 89.31837975 -78.65827942 87.06826782 C-78.65671596 82.35578286 -78.64843582 77.64337402 -78.63500977 72.9309082 C-78.61800068 66.88351587 -78.61419607 60.83620702 -78.61495495 54.78879356 C-78.61468337 50.14435018 -78.60920441 45.49992512 -78.60195351 40.85548782 C-78.59876677 38.62509932 -78.59679942 36.39470874 -78.5960598 34.16431808 C-78.59389742 31.05213613 -78.58515585 27.94004366 -78.57446289 24.82788086 C-78.57491608 23.90209732 -78.57536926 22.97631378 -78.57583618 22.0224762 C-78.56943871 20.75238457 -78.56943871 20.75238457 -78.56291199 19.45663452 C-78.56039822 18.35331063 -78.56039822 18.35331063 -78.55783367 17.22769737 C-78.42919922 15.29516602 -78.42919922 15.29516602 -77.42919922 12.29516602 C-76.43919922 12.29516602 -75.44919922 12.29516602 -74.42919922 12.29516602 C-74.42919922 11.30516602 -74.42919922 10.31516602 -74.42919922 9.29516602 C-71.67708525 5.51100932 -68.91694469 4.64267905 -64.52685547 3.78735352 C-62.34783417 3.34131985 -62.34783417 3.34131985 -60.10470581 2.28959656 C-57.40400561 1.28580207 -55.38728712 0.99325873 -52.5234375 0.89208984 C-51.5534079 0.85492355 -50.5833783 0.81775726 -49.58395386 0.77946472 C-48.52483795 0.74984146 -47.46572205 0.7202182 -46.37451172 0.68969727 C-45.24441681 0.65278275 -44.1143219 0.61586823 -42.94998169 0.57783508 C-28.63676384 0.15187574 -14.31878833 0.03645942 0 0 Z " fill="#3FA9F2" transform="translate(97.42919921875,98.704833984375)"/>
<path d="M0 0 C0.69891357 -0.00145523 1.39782715 -0.00291046 2.11791992 -0.00440979 C3.59395521 -0.00275158 5.07000793 0.00880138 6.54589844 0.02954102 C8.80478373 0.05849484 11.06132155 0.05015148 13.3203125 0.03710938 C14.75521974 0.04334714 16.19011956 0.0517384 17.625 0.0625 C18.93082031 0.07224854 20.23664063 0.08199707 21.58203125 0.09204102 C24.8125 0.49609375 24.8125 0.49609375 26.73681641 1.58764648 C28.39653209 4.53226689 28.20194915 7.10747985 28.2109375 10.46484375 C28.21380768 11.14156128 28.21667786 11.81827881 28.21963501 12.51550293 C28.22167397 13.94442584 28.21615569 15.37337677 28.20361328 16.80224609 C28.18755511 18.988591 28.20346534 21.17308754 28.22265625 23.359375 C28.22067379 24.74870199 28.21683004 26.13802784 28.2109375 27.52734375 C28.20755371 28.79126953 28.20416992 30.05519531 28.20068359 31.35742188 C27.8125 34.49609375 27.8125 34.49609375 26.73681641 36.40454102 C23.73256272 38.10867934 21.05334233 37.90409338 17.625 37.9296875 C16.57662964 37.93755028 16.57662964 37.93755028 15.50708008 37.9455719 C14.03110074 37.95198822 12.55507025 37.95066006 11.07910156 37.94213867 C8.820039 37.93362217 6.56350055 37.96239913 4.3046875 37.99414062 C2.86979242 37.99575262 1.43489287 37.99517514 0 37.9921875 C-1.30582031 37.99404053 -2.61164063 37.99589355 -3.95703125 37.99780273 C-7.1875 37.49609375 -7.1875 37.49609375 -9.11181641 35.87719727 C-10.51999586 32.76009009 -10.57603472 30.32210458 -10.5859375 26.90234375 C-10.58980469 25.62488281 -10.59367188 24.34742188 -10.59765625 23.03125 C-10.59137207 22.36883301 -10.58508789 21.70641602 -10.57861328 21.02392578 C-10.56254886 19.00224286 -10.57847765 16.98255862 -10.59765625 14.9609375 C-10.59378906 13.68347656 -10.58992187 12.40601563 -10.5859375 11.08984375 C-10.58255371 9.92130859 -10.57916992 8.75277344 -10.57568359 7.54882812 C-9.68450797 0.54048846 -6.62464165 -0.00940071 0 0 Z " fill="#49ADF1" transform="translate(201.1875,192.50390625)"/>
<path d="M0 0 C1.33224609 0.07057617 1.33224609 0.07057617 2.69140625 0.14257812 C3.61566406 0.20251953 4.53992188 0.26246094 5.4921875 0.32421875 C6.42417969 0.37255859 7.35617188 0.42089844 8.31640625 0.47070312 C15.22329271 0.86782396 15.22329271 0.86782396 16.3671875 2.01171875 C16.4663532 3.63429419 16.49798527 5.26111706 16.5 6.88671875 C16.50193359 8.36398438 16.50193359 8.36398438 16.50390625 9.87109375 C16.50003906 10.9075 16.49617188 11.94390625 16.4921875 13.01171875 C16.49798828 14.56632812 16.49798828 14.56632812 16.50390625 16.15234375 C16.50261719 17.1371875 16.50132813 18.12203125 16.5 19.13671875 C16.49887207 20.04679687 16.49774414 20.956875 16.49658203 21.89453125 C16.3671875 24.01171875 16.3671875 24.01171875 15.3671875 25.01171875 C13.74461206 25.11088445 12.11778919 25.14251652 10.4921875 25.14453125 C9.50734375 25.14582031 8.5225 25.14710937 7.5078125 25.1484375 C6.47140625 25.14457031 5.435 25.14070313 4.3671875 25.13671875 C2.81257813 25.14251953 2.81257813 25.14251953 1.2265625 25.1484375 C0.24171875 25.14714844 -0.743125 25.14585938 -1.7578125 25.14453125 C-2.66789062 25.14340332 -3.57796875 25.14227539 -4.515625 25.14111328 C-6.6328125 25.01171875 -6.6328125 25.01171875 -7.6328125 24.01171875 C-7.91180075 20.37345829 -7.86458543 16.72191077 -7.8828125 13.07421875 C-7.9034375 12.04619141 -7.9240625 11.01816406 -7.9453125 9.95898438 C-7.95046875 8.97736328 -7.955625 7.99574219 -7.9609375 6.984375 C-7.9702832 6.07953369 -7.97962891 5.17469238 -7.98925781 4.24243164 C-7.87163086 3.50629639 -7.75400391 2.77016113 -7.6328125 2.01171875 C-4.37850598 -0.15781893 -3.71108865 -0.20926641 0 0 Z " fill="#51AFEE" transform="translate(44.6328125,18.98828125)"/>
<path d="M0 0 C0.33 0.66 0.66 1.32 1 2 C2.32 2 3.64 2 5 2 C5.33 3.65 5.66 5.3 6 7 C8.74459248 7.91486416 10.33424667 8.12379643 13.15715027 8.12025452 C14.00268967 8.12162918 14.84822906 8.12300385 15.71939087 8.12442017 C16.64367889 8.12082489 17.56796692 8.11722961 18.52026367 8.11352539 C19.49605881 8.11367142 20.47185394 8.11381744 21.47721863 8.1139679 C24.70749116 8.11327038 27.93770627 8.10548545 31.16796875 8.09765625 C33.40570545 8.0957915 35.64344256 8.09436787 37.88117981 8.09336853 C43.77486292 8.08954784 49.66852144 8.07972135 55.56219482 8.06866455 C61.57466296 8.05844081 67.58713506 8.05386884 73.59960938 8.04882812 C85.39975039 8.03809871 97.19987315 8.02102763 109 8 C109 7.67 109 7.34 109 7 C113.455 6.505 113.455 6.505 118 6 C110.48104554 13.51895446 94.55984466 11.12920728 84.28953552 11.13894653 C82.78547127 11.13715615 81.28140732 11.13510505 79.77734375 11.1328125 C78.17704758 11.13348914 76.57675151 11.13446214 74.97645569 11.13571167 C71.65120447 11.1371713 68.32598043 11.13509046 65.00073242 11.13037109 C60.78319354 11.1246702 56.56571829 11.12796629 52.34818172 11.13394356 C49.05265338 11.13759253 45.75713962 11.13639097 42.46161079 11.13381577 C40.90820877 11.13315867 39.35480532 11.13393117 37.80140495 11.13629532 C30.1314327 11.1454145 22.46809122 11.07049361 14.80688477 10.67919922 C13.63851578 10.62238983 12.47014679 10.56558044 11.26637268 10.50704956 C6.24820323 9.72806294 2.98469619 8.11426148 -0.375 4.3125 C-1.179375 3.1678125 -1.179375 3.1678125 -2 2 C-1.34 2 -0.68 2 0 2 C0 1.34 0 0.68 0 0 Z " fill="#97CAEA" transform="translate(25,220)"/>
<path d="M0 0 C0.66 0 1.32 0 2 0 C2 33.66 2 67.32 2 102 C2.66 102 3.32 102 4 102 C4.625 103.875 4.625 103.875 5 106 C4.01 106.99 4.01 106.99 3 108 C-0.01229092 102.15175603 -0.41707904 97.4540468 -0.34057617 90.93383789 C-0.34101425 89.94770508 -0.34145233 88.96157227 -0.34190369 87.94555664 C-0.33982309 84.70438448 -0.3165261 81.46373742 -0.29296875 78.22265625 C-0.28737021 75.96821882 -0.28310133 73.71377772 -0.28010559 71.45933533 C-0.26867718 65.53931518 -0.23922703 59.6195175 -0.20599365 53.69958496 C-0.17524968 47.65326954 -0.161591 41.60691801 -0.14648438 35.56054688 C-0.11435558 23.70693377 -0.06318331 11.85348542 0 0 Z " fill="#92CBEE" transform="translate(19,114)"/>
<path d="M0 0 C0.33 0 0.66 0 1 0 C1.0093457 0.89307861 1.01869141 1.78615723 1.02832031 2.70629883 C1.07235304 6.02235162 1.13396861 9.33710939 1.20751953 12.65258789 C1.23573182 14.08703683 1.25694524 15.52164129 1.27099609 16.95629883 C1.29242449 19.01985302 1.33906467 21.08153706 1.390625 23.14453125 C1.41157227 24.38565674 1.43251953 25.62678223 1.45410156 26.90551758 C1.73407072 30.0110892 1.73407072 30.0110892 3.6171875 31.91015625 C6.78960343 33.36114649 9.24914915 33.33882698 12.734375 33.29296875 C13.90194336 33.28547607 15.06951172 33.2779834 16.27246094 33.27026367 C17.75004883 33.24295166 19.22763672 33.21563965 20.75 33.1875 C27.80375 33.0946875 27.80375 33.0946875 35 33 C35.33 22.44 35.66 11.88 36 1 C36.33 1 36.66 1 37 1 C37.07418046 5.35990873 37.12861544 9.71948279 37.16479492 14.07983398 C37.17987768 15.56297199 37.20034689 17.04606544 37.22631836 18.52905273 C37.26272616 20.66140745 37.27973073 22.79317235 37.29296875 24.92578125 C37.3086792 26.20880127 37.32438965 27.49182129 37.34057617 28.8137207 C37 32 37 32 35.9309082 33.91503906 C32.92070231 35.60644821 30.24070266 35.40800068 26.8125 35.43359375 C25.76412964 35.44145653 25.76412964 35.44145653 24.69458008 35.44947815 C23.21860074 35.45589447 21.74257025 35.45456631 20.26660156 35.44604492 C18.007539 35.43752842 15.75100055 35.46630538 13.4921875 35.49804688 C12.05729242 35.49965887 10.62239287 35.49908139 9.1875 35.49609375 C7.88167969 35.49794678 6.57585937 35.4997998 5.23046875 35.50170898 C2 35 2 35 0.07128906 33.38549805 C-1.34272409 30.2368375 -1.35541959 27.7858796 -1.328125 24.3359375 C-1.32296875 23.04945313 -1.3178125 21.76296875 -1.3125 20.4375 C-1.3021875 19.77105469 -1.291875 19.10460937 -1.28125 18.41796875 C-1.24999717 16.37481471 -1.2402665 14.33243229 -1.234375 12.2890625 C-1.15420918 2.30841837 -1.15420918 2.30841837 0 0 Z " fill="#83BFE7" transform="translate(192,195)"/>
<path d="M0 0 C-4.43076923 3.07692308 -4.43076923 3.07692308 -7.3125 2.6875 C-8.1478125 2.3471875 -8.1478125 2.3471875 -9 2 C-9 1.34 -9 0.68 -9 0 C-3.375 -1.125 -3.375 -1.125 0 0 Z " fill="#7FC0ED" transform="translate(143,227)"/>
</svg>
